<svg xmlns="http://www.w3.org/2000/svg" viewBox="0 0 32 32" width="32" height="32">
  <rect width="32" height="32" fill="#1b1f22"/>
  <g fill="#ffffff" transform="translate(4, 4)">
    <!-- Lightbulb -->
    <path d="M12 2C8.13 2 5 5.13 5 9c0 2.38 1.19 4.47 3 5.74V17c0 1.1.9 2 2 2h4c1.1 0 2-.9 2-2v-2.26c1.81-1.27 3-3.36 3-5.74 0-3.87-3.13-7-7-7z"/>
    <path d="M9 19v2c0 1.1.9 2 2 2h2c1.1 0 2-.9 2-2v-2H9z"/>
    <!-- Filament -->
    <path d="M12 6c-1.66 0-3 1.34-3 3s1.34 3 3 3 3-1.34 3-3-1.34-3-3-3z" fill="none" stroke="#ffffff" stroke-width="0.5"/>
    <!-- Light rays -->
    <path d="M12 1L11 3M12 1L13 3M8 4L9 6M16 4L15 6" stroke="#ffffff" stroke-width="0.3" stroke-linecap="round"/>
  </g>
</svg>
