<?xml version="1.0" encoding="utf-8"?>
<svg xmlns="http://www.w3.org/2000/svg" xmlns:xlink="http://www.w3.org/1999/xlink" width="600" height="400" viewBox="0 0 2400 1600">
<defs>
  <clipPath id="clip750">
    <rect x="0" y="0" width="2400" height="1600"/>
  </clipPath>
</defs>
<path clip-path="url(#clip750)" d="
M0 1600 L2400 1600 L2400 0 L0 0  Z
  " fill="#ffffff" fill-rule="evenodd" fill-opacity="1"/>
<defs>
  <clipPath id="clip751">
    <rect x="480" y="0" width="1681" height="1600"/>
  </clipPath>
</defs>
<path clip-path="url(#clip750)" d="
M178.867 1486.45 L2352.76 1486.45 L2352.76 47.2441 L178.867 47.2441  Z
  " fill="#ffffff" fill-rule="evenodd" fill-opacity="1"/>
<defs>
  <clipPath id="clip752">
    <rect x="178" y="47" width="2175" height="1440"/>
  </clipPath>
</defs>
<polyline clip-path="url(#clip752)" style="stroke:#000000; stroke-width:2; stroke-opacity:0.1; fill:none" points="
  240.392,1486.45 240.392,47.2441 
  "/>
<polyline clip-path="url(#clip752)" style="stroke:#000000; stroke-width:2; stroke-opacity:0.1; fill:none" points="
  753.102,1486.45 753.102,47.2441 
  "/>
<polyline clip-path="url(#clip752)" style="stroke:#000000; stroke-width:2; stroke-opacity:0.1; fill:none" points="
  1265.81,1486.45 1265.81,47.2441 
  "/>
<polyline clip-path="url(#clip752)" style="stroke:#000000; stroke-width:2; stroke-opacity:0.1; fill:none" points="
  1778.52,1486.45 1778.52,47.2441 
  "/>
<polyline clip-path="url(#clip752)" style="stroke:#000000; stroke-width:2; stroke-opacity:0.1; fill:none" points="
  2291.23,1486.45 2291.23,47.2441 
  "/>
<polyline clip-path="url(#clip750)" style="stroke:#000000; stroke-width:4; stroke-opacity:1; fill:none" points="
  178.867,1486.45 2352.76,1486.45 
  "/>
<polyline clip-path="url(#clip750)" style="stroke:#000000; stroke-width:4; stroke-opacity:1; fill:none" points="
  240.392,1486.45 240.392,1469.18 
  "/>
<polyline clip-path="url(#clip750)" style="stroke:#000000; stroke-width:4; stroke-opacity:1; fill:none" points="
  753.102,1486.45 753.102,1469.18 
  "/>
<polyline clip-path="url(#clip750)" style="stroke:#000000; stroke-width:4; stroke-opacity:1; fill:none" points="
  1265.81,1486.45 1265.81,1469.18 
  "/>
<polyline clip-path="url(#clip750)" style="stroke:#000000; stroke-width:4; stroke-opacity:1; fill:none" points="
  1778.52,1486.45 1778.52,1469.18 
  "/>
<polyline clip-path="url(#clip750)" style="stroke:#000000; stroke-width:4; stroke-opacity:1; fill:none" points="
  2291.23,1486.45 2291.23,1469.18 
  "/>
<path clip-path="url(#clip750)" d="M 0 0 M217.776 1515.64 Q214.165 1515.64 212.336 1519.2 Q210.531 1522.75 210.531 1529.87 Q210.531 1536.98 212.336 1540.55 Q214.165 1544.09 217.776 1544.09 Q221.41 1544.09 223.216 1540.55 Q225.045 1536.98 225.045 1529.87 Q225.045 1522.75 223.216 1519.2 Q221.41 1515.64 217.776 1515.64 M217.776 1511.93 Q223.586 1511.93 226.642 1516.54 Q229.721 1521.12 229.721 1529.87 Q229.721 1538.6 226.642 1543.21 Q223.586 1547.79 217.776 1547.79 Q211.966 1547.79 208.887 1543.21 Q205.832 1538.6 205.832 1529.87 Q205.832 1521.12 208.887 1516.54 Q211.966 1511.93 217.776 1511.93 Z" fill="#000000" fill-rule="evenodd" fill-opacity="1" /><path clip-path="url(#clip750)" d="M 0 0 M237.938 1541.24 L242.822 1541.24 L242.822 1547.12 L237.938 1547.12 L237.938 1541.24 Z" fill="#000000" fill-rule="evenodd" fill-opacity="1" /><path clip-path="url(#clip750)" d="M 0 0 M263.007 1515.64 Q259.396 1515.64 257.568 1519.2 Q255.762 1522.75 255.762 1529.87 Q255.762 1536.98 257.568 1540.55 Q259.396 1544.09 263.007 1544.09 Q266.642 1544.09 268.447 1540.55 Q270.276 1536.98 270.276 1529.87 Q270.276 1522.75 268.447 1519.2 Q266.642 1515.64 263.007 1515.64 M263.007 1511.93 Q268.818 1511.93 271.873 1516.54 Q274.952 1521.12 274.952 1529.87 Q274.952 1538.6 271.873 1543.21 Q268.818 1547.79 263.007 1547.79 Q257.197 1547.79 254.119 1543.21 Q251.063 1538.6 251.063 1529.87 Q251.063 1521.12 254.119 1516.54 Q257.197 1511.93 263.007 1511.93 Z" fill="#000000" fill-rule="evenodd" fill-opacity="1" /><path clip-path="url(#clip750)" d="M 0 0 M724.838 1543.18 L741.157 1543.18 L741.157 1547.12 L719.213 1547.12 L719.213 1543.18 Q721.875 1540.43 726.458 1535.8 Q731.065 1531.15 732.245 1529.81 Q734.491 1527.28 735.37 1525.55 Q736.273 1523.79 736.273 1522.1 Q736.273 1519.34 734.328 1517.61 Q732.407 1515.87 729.305 1515.87 Q727.106 1515.87 724.653 1516.63 Q722.222 1517.4 719.444 1518.95 L719.444 1514.23 Q722.268 1513.09 724.722 1512.51 Q727.176 1511.93 729.213 1511.93 Q734.583 1511.93 737.778 1514.62 Q740.972 1517.31 740.972 1521.8 Q740.972 1523.93 740.162 1525.85 Q739.375 1527.74 737.268 1530.34 Q736.69 1531.01 733.588 1534.23 Q730.486 1537.42 724.838 1543.18 Z" fill="#000000" fill-rule="evenodd" fill-opacity="1" /><path clip-path="url(#clip750)" d="M 0 0 M750.972 1541.24 L755.856 1541.24 L755.856 1547.12 L750.972 1547.12 L750.972 1541.24 Z" fill="#000000" fill-rule="evenodd" fill-opacity="1" /><path clip-path="url(#clip750)" d="M 0 0 M766.088 1512.56 L784.444 1512.56 L784.444 1516.5 L770.37 1516.5 L770.37 1524.97 Q771.388 1524.62 772.407 1524.46 Q773.426 1524.27 774.444 1524.27 Q780.231 1524.27 783.611 1527.44 Q786.99 1530.62 786.99 1536.03 Q786.99 1541.61 783.518 1544.71 Q780.046 1547.79 773.726 1547.79 Q771.551 1547.79 769.282 1547.42 Q767.037 1547.05 764.629 1546.31 L764.629 1541.61 Q766.713 1542.74 768.935 1543.3 Q771.157 1543.86 773.634 1543.86 Q777.638 1543.86 779.976 1541.75 Q782.314 1539.64 782.314 1536.03 Q782.314 1532.42 779.976 1530.31 Q777.638 1528.21 773.634 1528.21 Q771.759 1528.21 769.884 1528.62 Q768.032 1529.04 766.088 1529.92 L766.088 1512.56 Z" fill="#000000" fill-rule="evenodd" fill-opacity="1" /><path clip-path="url(#clip750)" d="M 0 0 M1232.98 1512.56 L1251.33 1512.56 L1251.33 1516.5 L1237.26 1516.5 L1237.26 1524.97 Q1238.28 1524.62 1239.3 1524.46 Q1240.31 1524.27 1241.33 1524.27 Q1247.12 1524.27 1250.5 1527.44 Q1253.88 1530.62 1253.88 1536.03 Q1253.88 1541.61 1250.41 1544.71 Q1246.93 1547.79 1240.61 1547.79 Q1238.44 1547.79 1236.17 1547.42 Q1233.92 1547.05 1231.52 1546.31 L1231.52 1541.61 Q1233.6 1542.74 1235.82 1543.3 Q1238.05 1543.86 1240.52 1543.86 Q1244.53 1543.86 1246.86 1541.75 Q1249.2 1539.64 1249.2 1536.03 Q1249.2 1532.42 1246.86 1530.31 Q1244.53 1528.21 1240.52 1528.21 Q1238.65 1528.21 1236.77 1528.62 Q1234.92 1529.04 1232.98 1529.92 L1232.98 1512.56 Z" fill="#000000" fill-rule="evenodd" fill-opacity="1" /><path clip-path="url(#clip750)" d="M 0 0 M1263.09 1541.24 L1267.98 1541.24 L1267.98 1547.12 L1263.09 1547.12 L1263.09 1541.24 Z" fill="#000000" fill-rule="evenodd" fill-opacity="1" /><path clip-path="url(#clip750)" d="M 0 0 M1288.16 1515.64 Q1284.55 1515.64 1282.72 1519.2 Q1280.92 1522.75 1280.92 1529.87 Q1280.92 1536.98 1282.72 1540.55 Q1284.55 1544.09 1288.16 1544.09 Q1291.79 1544.09 1293.6 1540.55 Q1295.43 1536.98 1295.43 1529.87 Q1295.43 1522.75 1293.6 1519.2 Q1291.79 1515.64 1288.16 1515.64 M1288.16 1511.93 Q1293.97 1511.93 1297.03 1516.54 Q1300.11 1521.12 1300.11 1529.87 Q1300.11 1538.6 1297.03 1543.21 Q1293.97 1547.79 1288.16 1547.79 Q1282.35 1547.79 1279.27 1543.21 Q1276.22 1538.6 1276.22 1529.87 Q1276.22 1521.12 1279.27 1516.54 Q1282.35 1511.93 1288.16 1511.93 Z" fill="#000000" fill-rule="evenodd" fill-opacity="1" /><path clip-path="url(#clip750)" d="M 0 0 M1744.84 1512.56 L1767.06 1512.56 L1767.06 1514.55 L1754.52 1547.12 L1749.63 1547.12 L1761.44 1516.5 L1744.84 1516.5 L1744.84 1512.56 Z" fill="#000000" fill-rule="evenodd" fill-opacity="1" /><path clip-path="url(#clip750)" d="M 0 0 M1776.18 1541.24 L1781.07 1541.24 L1781.07 1547.12 L1776.18 1547.12 L1776.18 1541.24 Z" fill="#000000" fill-rule="evenodd" fill-opacity="1" /><path clip-path="url(#clip750)" d="M 0 0 M1791.3 1512.56 L1809.66 1512.56 L1809.66 1516.5 L1795.58 1516.5 L1795.58 1524.97 Q1796.6 1524.62 1797.62 1524.46 Q1798.64 1524.27 1799.66 1524.27 Q1805.44 1524.27 1808.82 1527.44 Q1812.2 1530.62 1812.2 1536.03 Q1812.2 1541.61 1808.73 1544.71 Q1805.26 1547.79 1798.94 1547.79 Q1796.76 1547.79 1794.49 1547.42 Q1792.25 1547.05 1789.84 1546.31 L1789.84 1541.61 Q1791.92 1542.74 1794.15 1543.3 Q1796.37 1543.86 1798.84 1543.86 Q1802.85 1543.86 1805.19 1541.75 Q1807.53 1539.64 1807.53 1536.03 Q1807.53 1532.42 1805.19 1530.31 Q1802.85 1528.21 1798.84 1528.21 Q1796.97 1528.21 1795.09 1528.62 Q1793.24 1529.04 1791.3 1529.92 L1791.3 1512.56 Z" fill="#000000" fill-rule="evenodd" fill-opacity="1" /><path clip-path="url(#clip750)" d="M 0 0 M2243.3 1543.18 L2250.94 1543.18 L2250.94 1516.82 L2242.63 1518.49 L2242.63 1514.23 L2250.9 1512.56 L2255.57 1512.56 L2255.57 1543.18 L2263.21 1543.18 L2263.21 1547.12 L2243.3 1547.12 L2243.3 1543.18 Z" fill="#000000" fill-rule="evenodd" fill-opacity="1" /><path clip-path="url(#clip750)" d="M 0 0 M2282.65 1515.64 Q2279.04 1515.64 2277.21 1519.2 Q2275.41 1522.75 2275.41 1529.87 Q2275.41 1536.98 2277.21 1540.55 Q2279.04 1544.09 2282.65 1544.09 Q2286.29 1544.09 2288.09 1540.55 Q2289.92 1536.98 2289.92 1529.87 Q2289.92 1522.75 2288.09 1519.2 Q2286.29 1515.64 2282.65 1515.64 M2282.65 1511.93 Q2288.46 1511.93 2291.52 1516.54 Q2294.6 1521.12 2294.6 1529.87 Q2294.6 1538.6 2291.52 1543.21 Q2288.46 1547.79 2282.65 1547.79 Q2276.84 1547.79 2273.77 1543.21 Q2270.71 1538.6 2270.71 1529.87 Q2270.71 1521.12 2273.77 1516.54 Q2276.84 1511.93 2282.65 1511.93 Z" fill="#000000" fill-rule="evenodd" fill-opacity="1" /><path clip-path="url(#clip750)" d="M 0 0 M2302.82 1541.24 L2307.7 1541.24 L2307.7 1547.12 L2302.82 1547.12 L2302.82 1541.24 Z" fill="#000000" fill-rule="evenodd" fill-opacity="1" /><path clip-path="url(#clip750)" d="M 0 0 M2327.89 1515.64 Q2324.27 1515.64 2322.45 1519.2 Q2320.64 1522.75 2320.64 1529.87 Q2320.64 1536.98 2322.45 1540.55 Q2324.27 1544.09 2327.89 1544.09 Q2331.52 1544.09 2333.33 1540.55 Q2335.15 1536.98 2335.15 1529.87 Q2335.15 1522.75 2333.33 1519.2 Q2331.52 1515.64 2327.89 1515.64 M2327.89 1511.93 Q2333.7 1511.93 2336.75 1516.54 Q2339.83 1521.12 2339.83 1529.87 Q2339.83 1538.6 2336.75 1543.21 Q2333.7 1547.79 2327.89 1547.79 Q2322.08 1547.79 2319 1543.21 Q2315.94 1538.6 2315.94 1529.87 Q2315.94 1521.12 2319 1516.54 Q2322.08 1511.93 2327.89 1511.93 Z" fill="#000000" fill-rule="evenodd" fill-opacity="1" /><polyline clip-path="url(#clip752)" style="stroke:#000000; stroke-width:2; stroke-opacity:0.1; fill:none" points="
  178.867,1260.15 2352.76,1260.15 
  "/>
<polyline clip-path="url(#clip752)" style="stroke:#000000; stroke-width:2; stroke-opacity:0.1; fill:none" points="
  178.867,967.104 2352.76,967.104 
  "/>
<polyline clip-path="url(#clip752)" style="stroke:#000000; stroke-width:2; stroke-opacity:0.1; fill:none" points="
  178.867,674.061 2352.76,674.061 
  "/>
<polyline clip-path="url(#clip752)" style="stroke:#000000; stroke-width:2; stroke-opacity:0.1; fill:none" points="
  178.867,381.019 2352.76,381.019 
  "/>
<polyline clip-path="url(#clip752)" style="stroke:#000000; stroke-width:2; stroke-opacity:0.1; fill:none" points="
  178.867,87.9763 2352.76,87.9763 
  "/>
<polyline clip-path="url(#clip750)" style="stroke:#000000; stroke-width:4; stroke-opacity:1; fill:none" points="
  178.867,1486.45 178.867,47.2441 
  "/>
<polyline clip-path="url(#clip750)" style="stroke:#000000; stroke-width:4; stroke-opacity:1; fill:none" points="
  178.867,1260.15 204.953,1260.15 
  "/>
<polyline clip-path="url(#clip750)" style="stroke:#000000; stroke-width:4; stroke-opacity:1; fill:none" points="
  178.867,967.104 204.953,967.104 
  "/>
<polyline clip-path="url(#clip750)" style="stroke:#000000; stroke-width:4; stroke-opacity:1; fill:none" points="
  178.867,674.061 204.953,674.061 
  "/>
<polyline clip-path="url(#clip750)" style="stroke:#000000; stroke-width:4; stroke-opacity:1; fill:none" points="
  178.867,381.019 204.953,381.019 
  "/>
<polyline clip-path="url(#clip750)" style="stroke:#000000; stroke-width:4; stroke-opacity:1; fill:none" points="
  178.867,87.9763 204.953,87.9763 
  "/>
<path clip-path="url(#clip750)" d="M 0 0 M51.9875 1260.6 L81.6633 1260.6 L81.6633 1264.53 L51.9875 1264.53 L51.9875 1260.6 Z" fill="#000000" fill-rule="evenodd" fill-opacity="1" /><path clip-path="url(#clip750)" d="M 0 0 M92.566 1273.49 L100.205 1273.49 L100.205 1247.13 L91.8947 1248.79 L91.8947 1244.53 L100.159 1242.87 L104.834 1242.87 L104.834 1273.49 L112.473 1273.49 L112.473 1277.43 L92.566 1277.43 L92.566 1273.49 Z" fill="#000000" fill-rule="evenodd" fill-opacity="1" /><path clip-path="url(#clip750)" d="M 0 0 M121.964 1242.87 L140.32 1242.87 L140.32 1246.8 L126.246 1246.8 L126.246 1255.27 Q127.265 1254.93 128.283 1254.76 Q129.302 1254.58 130.32 1254.58 Q136.107 1254.58 139.487 1257.75 Q142.867 1260.92 142.867 1266.34 Q142.867 1271.92 139.394 1275.02 Q135.922 1278.1 129.603 1278.1 Q127.427 1278.1 125.158 1277.73 Q122.913 1277.36 120.506 1276.62 L120.506 1271.92 Q122.589 1273.05 124.811 1273.61 Q127.033 1274.16 129.51 1274.16 Q133.515 1274.16 135.853 1272.06 Q138.191 1269.95 138.191 1266.34 Q138.191 1262.73 135.853 1260.62 Q133.515 1258.51 129.51 1258.51 Q127.635 1258.51 125.76 1258.93 Q123.908 1259.35 121.964 1260.23 L121.964 1242.87 Z" fill="#000000" fill-rule="evenodd" fill-opacity="1" /><path clip-path="url(#clip750)" d="M 0 0 M50.9921 967.555 L80.6679 967.555 L80.6679 971.491 L50.9921 971.491 L50.9921 967.555 Z" fill="#000000" fill-rule="evenodd" fill-opacity="1" /><path clip-path="url(#clip750)" d="M 0 0 M91.5706 980.449 L99.2095 980.449 L99.2095 954.083 L90.8993 955.75 L90.8993 951.491 L99.1632 949.824 L103.839 949.824 L103.839 980.449 L111.478 980.449 L111.478 984.384 L91.5706 984.384 L91.5706 980.449 Z" fill="#000000" fill-rule="evenodd" fill-opacity="1" /><path clip-path="url(#clip750)" d="M 0 0 M130.922 952.903 Q127.311 952.903 125.482 956.468 Q123.677 960.009 123.677 967.139 Q123.677 974.245 125.482 977.81 Q127.311 981.352 130.922 981.352 Q134.556 981.352 136.362 977.81 Q138.191 974.245 138.191 967.139 Q138.191 960.009 136.362 956.468 Q134.556 952.903 130.922 952.903 M130.922 949.199 Q136.732 949.199 139.788 953.805 Q142.867 958.389 142.867 967.139 Q142.867 975.866 139.788 980.472 Q136.732 985.055 130.922 985.055 Q125.112 985.055 122.033 980.472 Q118.978 975.866 118.978 967.139 Q118.978 958.389 122.033 953.805 Q125.112 949.199 130.922 949.199 Z" fill="#000000" fill-rule="evenodd" fill-opacity="1" /><path clip-path="url(#clip750)" d="M 0 0 M82.1494 674.513 L111.825 674.513 L111.825 678.448 L82.1494 678.448 L82.1494 674.513 Z" fill="#000000" fill-rule="evenodd" fill-opacity="1" /><path clip-path="url(#clip750)" d="M 0 0 M121.964 656.781 L140.32 656.781 L140.32 660.717 L126.246 660.717 L126.246 669.189 Q127.265 668.842 128.283 668.68 Q129.302 668.494 130.32 668.494 Q136.107 668.494 139.487 671.666 Q142.867 674.837 142.867 680.254 Q142.867 685.832 139.394 688.934 Q135.922 692.013 129.603 692.013 Q127.427 692.013 125.158 691.642 Q122.913 691.272 120.506 690.531 L120.506 685.832 Q122.589 686.966 124.811 687.522 Q127.033 688.078 129.51 688.078 Q133.515 688.078 135.853 685.971 Q138.191 683.865 138.191 680.254 Q138.191 676.642 135.853 674.536 Q133.515 672.43 129.51 672.43 Q127.635 672.43 125.76 672.846 Q123.908 673.263 121.964 674.142 L121.964 656.781 Z" fill="#000000" fill-rule="evenodd" fill-opacity="1" /><path clip-path="url(#clip750)" d="M 0 0 M130.922 366.818 Q127.311 366.818 125.482 370.382 Q123.677 373.924 123.677 381.054 Q123.677 388.16 125.482 391.725 Q127.311 395.266 130.922 395.266 Q134.556 395.266 136.362 391.725 Q138.191 388.16 138.191 381.054 Q138.191 373.924 136.362 370.382 Q134.556 366.818 130.922 366.818 M130.922 363.114 Q136.732 363.114 139.788 367.72 Q142.867 372.304 142.867 381.054 Q142.867 389.78 139.788 394.387 Q136.732 398.97 130.922 398.97 Q125.112 398.97 122.033 394.387 Q118.978 389.78 118.978 381.054 Q118.978 372.304 122.033 367.72 Q125.112 363.114 130.922 363.114 Z" fill="#000000" fill-rule="evenodd" fill-opacity="1" /><path clip-path="url(#clip750)" d="M 0 0 M121.964 70.6963 L140.32 70.6963 L140.32 74.6314 L126.246 74.6314 L126.246 83.1036 Q127.265 82.7564 128.283 82.5944 Q129.302 82.4092 130.32 82.4092 Q136.107 82.4092 139.487 85.5805 Q142.867 88.7517 142.867 94.1684 Q142.867 99.747 139.394 102.849 Q135.922 105.928 129.603 105.928 Q127.427 105.928 125.158 105.557 Q122.913 105.187 120.506 104.446 L120.506 99.747 Q122.589 100.881 124.811 101.437 Q127.033 101.992 129.51 101.992 Q133.515 101.992 135.853 99.8859 Q138.191 97.7795 138.191 94.1684 Q138.191 90.5573 135.853 88.4508 Q133.515 86.3443 129.51 86.3443 Q127.635 86.3443 125.76 86.761 Q123.908 87.1777 121.964 88.0573 L121.964 70.6963 Z" fill="#000000" fill-rule="evenodd" fill-opacity="1" /><polyline clip-path="url(#clip752)" style="stroke:#009af9; stroke-width:4; stroke-opacity:1; fill:none" points="
  240.392,87.9763 260.9,88.2623 281.409,89.0951 301.917,90.4409 322.425,92.2715 342.934,94.5623 363.442,97.2919 383.951,100.442 404.459,103.995 424.967,107.936 
  445.476,112.253 465.984,116.932 486.492,121.963 507.001,127.335 527.509,133.039 548.018,139.066 568.526,145.408 589.034,152.058 609.543,159.008 630.051,166.253 
  650.56,173.785 671.068,181.599 691.576,189.69 712.085,198.052 732.593,206.681 753.102,215.571 773.61,224.719 794.118,234.12 814.627,243.77 835.135,253.665 
  855.643,263.802 876.152,274.177 896.66,284.787 917.169,295.628 937.677,306.697 958.185,317.993 978.694,329.51 999.202,341.248 1019.71,353.202 1040.22,365.371 
  1060.73,377.753 1081.24,390.344 1101.74,403.142 1122.25,416.145 1142.76,429.352 1163.27,442.759 1183.78,456.365 1204.29,470.168 1224.79,484.166 1245.3,498.357 
  1265.81,512.738 1286.32,527.31 1306.83,542.069 1327.34,557.014 1347.84,572.144 1368.35,587.456 1388.86,602.949 1409.37,618.623 1429.88,634.474 1450.39,650.503 
  1470.9,666.707 1491.4,683.084 1511.91,699.635 1532.42,716.357 1552.93,733.249 1573.44,750.31 1593.95,767.539 1614.45,784.934 1634.96,802.494 1655.47,820.219 
  1675.98,838.106 1696.49,856.155 1717,874.366 1737.5,892.735 1758.01,911.264 1778.52,929.95 1799.03,948.793 1819.54,967.792 1840.05,986.945 1860.55,1006.25 
  1881.06,1025.71 1901.57,1045.32 1922.08,1065.09 1942.59,1085 1963.1,1105.06 1983.6,1125.27 2004.11,1145.63 2024.62,1166.14 2045.13,1186.79 2065.64,1207.59 
  2086.15,1228.53 2106.66,1249.61 2127.16,1270.84 2147.67,1292.21 2168.18,1313.72 2188.69,1335.37 2209.2,1357.16 2229.71,1379.09 2250.21,1401.16 2270.72,1423.37 
  2291.23,1445.72 
  "/>
<polyline clip-path="url(#clip752)" style="stroke:#e26f46; stroke-width:4; stroke-opacity:1; fill:none" points="
  -1995.02,381.019 4526.65,381.019 
  "/>
<path clip-path="url(#clip750)" d="
M1850.21 276.658 L2280.29 276.658 L2280.29 95.2176 L1850.21 95.2176  Z
  " fill="#ffffff" fill-rule="evenodd" fill-opacity="1"/>
<polyline clip-path="url(#clip750)" style="stroke:#000000; stroke-width:4; stroke-opacity:1; fill:none" points="
  1850.21,276.658 2280.29,276.658 2280.29,95.2176 1850.21,95.2176 1850.21,276.658 
  "/>
<polyline clip-path="url(#clip750)" style="stroke:#009af9; stroke-width:4; stroke-opacity:1; fill:none" points="
  1874.36,155.698 2019.29,155.698 
  "/>
<path clip-path="url(#clip750)" d="M 0 0 M2059.95 136.959 L2059.95 140.501 L2055.87 140.501 Q2053.58 140.501 2052.68 141.427 Q2051.8 142.353 2051.8 144.76 L2051.8 147.052 L2058.81 147.052 L2058.81 150.362 L2051.8 150.362 L2051.8 172.978 L2047.52 172.978 L2047.52 150.362 L2043.44 150.362 L2043.44 147.052 L2047.52 147.052 L2047.52 145.246 Q2047.52 140.918 2049.53 138.95 Q2051.55 136.959 2055.92 136.959 L2059.95 136.959 Z" fill="#000000" fill-rule="evenodd" fill-opacity="1" /><path clip-path="url(#clip750)" d="M 0 0 M2063.07 162.746 L2063.07 147.052 L2067.33 147.052 L2067.33 162.584 Q2067.33 166.265 2068.77 168.116 Q2070.2 169.945 2073.07 169.945 Q2076.52 169.945 2078.51 167.746 Q2080.53 165.547 2080.53 161.751 L2080.53 147.052 L2084.79 147.052 L2084.79 172.978 L2080.53 172.978 L2080.53 168.996 Q2078.98 171.357 2076.92 172.515 Q2074.88 173.649 2072.17 173.649 Q2067.7 173.649 2065.39 170.871 Q2063.07 168.093 2063.07 162.746 M2073.79 146.427 L2073.79 146.427 Z" fill="#000000" fill-rule="evenodd" fill-opacity="1" /><path clip-path="url(#clip750)" d="M 0 0 M2115.11 157.329 L2115.11 172.978 L2110.85 172.978 L2110.85 157.468 Q2110.85 153.788 2109.42 151.959 Q2107.98 150.13 2105.11 150.13 Q2101.66 150.13 2099.67 152.33 Q2097.68 154.529 2097.68 158.325 L2097.68 172.978 L2093.4 172.978 L2093.4 147.052 L2097.68 147.052 L2097.68 151.08 Q2099.21 148.742 2101.27 147.584 Q2103.35 146.427 2106.06 146.427 Q2110.53 146.427 2112.82 149.205 Q2115.11 151.959 2115.11 157.329 Z" fill="#000000" fill-rule="evenodd" fill-opacity="1" /><path clip-path="url(#clip750)" d="M 0 0 M2142.26 148.047 L2142.26 152.029 Q2140.46 151.033 2138.63 150.547 Q2136.82 150.038 2134.97 150.038 Q2130.83 150.038 2128.54 152.677 Q2126.24 155.292 2126.24 160.038 Q2126.24 164.783 2128.54 167.422 Q2130.83 170.038 2134.97 170.038 Q2136.82 170.038 2138.63 169.552 Q2140.46 169.042 2142.26 168.047 L2142.26 171.982 Q2140.48 172.816 2138.56 173.232 Q2136.66 173.649 2134.51 173.649 Q2128.65 173.649 2125.2 169.968 Q2121.75 166.288 2121.75 160.038 Q2121.75 153.695 2125.23 150.061 Q2128.72 146.427 2134.79 146.427 Q2136.75 146.427 2138.63 146.843 Q2140.5 147.237 2142.26 148.047 Z" fill="#000000" fill-rule="evenodd" fill-opacity="1" /><path clip-path="url(#clip750)" d="M 0 0 M2153.88 139.691 L2153.88 147.052 L2162.66 147.052 L2162.66 150.362 L2153.88 150.362 L2153.88 164.436 Q2153.88 167.607 2154.74 168.51 Q2155.62 169.413 2158.28 169.413 L2162.66 169.413 L2162.66 172.978 L2158.28 172.978 Q2153.35 172.978 2151.48 171.149 Q2149.6 169.297 2149.6 164.436 L2149.6 150.362 L2146.48 150.362 L2146.48 147.052 L2149.6 147.052 L2149.6 139.691 L2153.88 139.691 Z" fill="#000000" fill-rule="evenodd" fill-opacity="1" /><path clip-path="url(#clip750)" d="M 0 0 M2168.26 147.052 L2172.52 147.052 L2172.52 172.978 L2168.26 172.978 L2168.26 147.052 M2168.26 136.959 L2172.52 136.959 L2172.52 142.353 L2168.26 142.353 L2168.26 136.959 Z" fill="#000000" fill-rule="evenodd" fill-opacity="1" /><path clip-path="url(#clip750)" d="M 0 0 M2191.48 150.038 Q2188.05 150.038 2186.06 152.723 Q2184.07 155.385 2184.07 160.038 Q2184.07 164.691 2186.04 167.376 Q2188.03 170.038 2191.48 170.038 Q2194.88 170.038 2196.87 167.353 Q2198.86 164.667 2198.86 160.038 Q2198.86 155.431 2196.87 152.746 Q2194.88 150.038 2191.48 150.038 M2191.48 146.427 Q2197.03 146.427 2200.2 150.038 Q2203.37 153.649 2203.37 160.038 Q2203.37 166.404 2200.2 170.038 Q2197.03 173.649 2191.48 173.649 Q2185.9 173.649 2182.73 170.038 Q2179.58 166.404 2179.58 160.038 Q2179.58 153.649 2182.73 150.038 Q2185.9 146.427 2191.48 146.427 Z" fill="#000000" fill-rule="evenodd" fill-opacity="1" /><path clip-path="url(#clip750)" d="M 0 0 M2231.98 157.329 L2231.98 172.978 L2227.73 172.978 L2227.73 157.468 Q2227.73 153.788 2226.29 151.959 Q2224.85 150.13 2221.98 150.13 Q2218.54 150.13 2216.54 152.33 Q2214.55 154.529 2214.55 158.325 L2214.55 172.978 L2210.27 172.978 L2210.27 147.052 L2214.55 147.052 L2214.55 151.08 Q2216.08 148.742 2218.14 147.584 Q2220.23 146.427 2222.93 146.427 Q2227.4 146.427 2229.69 149.205 Q2231.98 151.959 2231.98 157.329 Z" fill="#000000" fill-rule="evenodd" fill-opacity="1" /><polyline clip-path="url(#clip750)" style="stroke:#e26f46; stroke-width:4; stroke-opacity:1; fill:none" points="
  1874.36,216.178 2019.29,216.178 
  "/>
<path clip-path="url(#clip750)" d="M 0 0 M2044.02 207.532 L2064.25 207.532 L2064.25 211.421 L2048.24 230.055 L2064.25 230.055 L2064.25 233.458 L2043.44 233.458 L2043.44 229.569 L2059.46 210.935 L2044.02 210.935 L2044.02 207.532 Z" fill="#000000" fill-rule="evenodd" fill-opacity="1" /><path clip-path="url(#clip750)" d="M 0 0 M2092.93 219.43 L2092.93 221.513 L2073.35 221.513 Q2073.63 225.911 2075.99 228.226 Q2078.37 230.518 2082.61 230.518 Q2085.06 230.518 2087.36 229.916 Q2089.67 229.314 2091.94 228.11 L2091.94 232.138 Q2089.65 233.11 2087.24 233.62 Q2084.83 234.129 2082.36 234.129 Q2076.15 234.129 2072.52 230.518 Q2068.91 226.907 2068.91 220.749 Q2068.91 214.384 2072.33 210.657 Q2075.78 206.907 2081.61 206.907 Q2086.85 206.907 2089.88 210.286 Q2092.93 213.643 2092.93 219.43 M2088.67 218.18 Q2088.63 214.685 2086.71 212.601 Q2084.81 210.518 2081.66 210.518 Q2078.1 210.518 2075.94 212.532 Q2073.81 214.546 2073.49 218.203 L2088.67 218.18 Z" fill="#000000" fill-rule="evenodd" fill-opacity="1" /><path clip-path="url(#clip750)" d="M 0 0 M2114.95 211.513 Q2114.23 211.097 2113.37 210.911 Q2112.54 210.703 2111.52 210.703 Q2107.91 210.703 2105.97 213.064 Q2104.05 215.402 2104.05 219.8 L2104.05 233.458 L2099.76 233.458 L2099.76 207.532 L2104.05 207.532 L2104.05 211.56 Q2105.39 209.198 2107.54 208.064 Q2109.69 206.907 2112.77 206.907 Q2113.21 206.907 2113.74 206.976 Q2114.28 207.023 2114.92 207.138 L2114.95 211.513 Z" fill="#000000" fill-rule="evenodd" fill-opacity="1" /><path clip-path="url(#clip750)" d="M 0 0 M2128.42 210.518 Q2124.99 210.518 2123 213.203 Q2121.01 215.865 2121.01 220.518 Q2121.01 225.171 2122.98 227.856 Q2124.97 230.518 2128.42 230.518 Q2131.82 230.518 2133.81 227.833 Q2135.8 225.147 2135.8 220.518 Q2135.8 215.911 2133.81 213.226 Q2131.82 210.518 2128.42 210.518 M2128.42 206.907 Q2133.98 206.907 2137.15 210.518 Q2140.32 214.129 2140.32 220.518 Q2140.32 226.884 2137.15 230.518 Q2133.98 234.129 2128.42 234.129 Q2122.84 234.129 2119.67 230.518 Q2116.52 226.884 2116.52 220.518 Q2116.52 214.129 2119.67 210.518 Q2122.84 206.907 2128.42 206.907 Z" fill="#000000" fill-rule="evenodd" fill-opacity="1" /></svg>
